<svg width="50" height="67" viewBox="0 0 50 67" fill="none" xmlns="http://www.w3.org/2000/svg">
<path d="M46.4793 36.0262C45.9222 36.0262 45.471 35.575 45.471 35.0179V22.6142C45.471 11.2573 36.2316 2.01654 24.8734 2.01654C13.5152 2.01654 4.27575 11.2566 4.27575 22.6142C4.27575 23.1707 3.82456 23.6225 3.26739 23.6225C2.71023 23.6225 2.25903 23.1713 2.25903 22.6142C2.25903 10.1447 12.4031 0 24.8732 0C37.3426 0 47.4873 10.1441 47.4873 22.6142V35.0179C47.4873 35.5745 47.0361 36.0262 46.479 36.0262H46.4793Z" fill="#262B2C"/>
<path d="M48.9923 41.6779C48.9538 41.6779 48.9143 41.6762 48.8741 41.6709C38.4323 40.4507 38.3113 32.0868 38.3113 32.0024V21.2947C37.1702 15.2875 35.1466 12.0575 26.891 9.99369C23.7949 9.21937 20.8053 9.9215 18.0049 12.0791C15.6744 13.8734 13.8748 16.5347 12.8031 19.7758C12.4083 20.9669 12.0008 22.0521 11.5909 23.0018C10.4289 25.6962 7.75072 27.437 4.76705 27.437H1.00836C0.451196 27.437 0 26.9858 0 26.4286C0 25.872 0.451196 25.4203 1.00836 25.4203H4.76705C6.945 25.4203 8.89715 24.1575 9.73954 22.203C10.1255 21.307 10.5127 20.2771 10.8888 19.1419C12.0881 15.5166 14.1235 12.5223 16.7742 10.4812C20.0427 7.9655 23.7076 7.12073 27.3794 8.03719C36.6375 10.352 39.067 14.3837 40.3106 21.0143C40.3222 21.076 40.3281 21.1377 40.3281 21.2006V32.0031C40.331 32.2698 40.4917 38.6612 49.1087 39.6684C49.6624 39.733 50.0577 40.2337 49.9931 40.7868C49.9325 41.3003 49.4976 41.6781 48.9923 41.6781L48.9923 41.6779Z" fill="#262B2C"/>
<path d="M2.26317 49.3402C1.73221 49.3402 1.28857 48.925 1.25772 48.3883C1.22628 47.8323 1.65186 47.356 2.20786 47.3246C2.29577 47.3199 11.1608 46.7616 20.7487 41.5416C30.2006 36.3973 31.0436 29.1549 31.6584 23.8667C31.9251 21.5712 31.1828 19.4065 29.6243 17.908C28.3179 16.6516 26.6004 16.0484 25.0308 16.2918C21.93 16.7762 19.5203 20.6239 18.5859 26.5839C17.6102 32.8012 9.84254 34.5489 9.51182 34.6206C9.44195 34.6357 9.37092 34.6433 9.29931 34.6433H1.00885C0.451685 34.6433 0.000488281 34.1921 0.000488281 33.6349C0.000488281 33.0783 0.451685 32.6265 1.00885 32.6265H9.18112C10.0073 32.4204 15.8828 30.7978 16.593 26.2718C17.6869 19.2989 20.6492 14.9354 24.7198 14.2996C26.9071 13.9532 29.2632 14.763 31.0226 16.4537C33.0393 18.3924 34.0023 21.1718 33.6647 24.0787C33.0336 29.5035 32.0841 37.6689 21.7145 43.3126C11.7071 48.7602 2.69824 49.3161 2.32116 49.3377C2.3002 49.3395 2.28157 49.3401 2.26294 49.3401L2.26317 49.3402Z" fill="#262B2C"/>
<path d="M3.26761 41.6779C2.7448 41.6779 2.30233 41.2745 2.26332 40.7441C2.22199 40.1887 2.63941 39.7054 3.19483 39.6641C17.2967 38.622 24.2247 32.8128 24.9982 21.3826C25.0355 20.8266 25.5338 20.3946 26.0723 20.4447C26.6278 20.4819 27.0481 20.9634 27.0108 21.5183C26.1678 33.9662 18.4263 40.5599 3.34297 41.6732C3.31851 41.6755 3.2929 41.6767 3.26845 41.6767L3.26761 41.6779Z" fill="#262B2C"/>
<path d="M47.1085 48.7127C47.0945 48.7127 47.0799 48.7121 47.066 48.7115C37.4463 48.3162 33.4566 41.458 33.2912 41.1663C33.0164 40.6819 33.187 40.0665 33.6725 39.7923C34.1569 39.5193 34.7694 39.6881 35.0453 40.1707C35.1961 40.4327 38.6928 46.349 47.1492 46.6965C47.7058 46.7193 48.1378 47.1891 48.1151 47.7451C48.0918 48.2883 47.6458 48.7127 47.1085 48.7127L47.1085 48.7127Z" fill="#262B2C"/>
<path d="M45.2751 55.6283C43.0744 55.6283 39.1021 54.068 33.4577 50.9847C30.9194 49.5985 28.0055 49.2958 25.2564 50.1312L7.33112 55.5788C6.79725 55.7425 6.23542 55.4397 6.07241 54.907C5.91115 54.3743 6.21098 53.8113 6.74426 53.6489L24.6696 48.2012C27.8938 47.2214 31.4504 47.5899 34.4248 49.2148C39.7274 52.1113 43.7668 53.7158 45.4114 53.607C45.9843 53.5656 46.4466 53.9953 46.4809 54.5501C46.5153 55.1061 46.0932 55.5853 45.5378 55.6196C45.4528 55.626 45.3649 55.6283 45.2752 55.6283L45.2751 55.6283Z" fill="#262B2C"/>
<path d="M41.4223 61.7762C41.2739 61.7762 41.1219 61.7431 40.9793 61.6732L32.6527 57.5874C30.1661 56.3671 27.3275 56.1086 24.661 56.8585L10.4519 60.8587C9.91801 61.0136 9.35794 60.6975 9.20714 60.1618C9.05635 59.6256 9.3684 59.0691 9.90403 58.9183L24.1131 54.918C27.2582 54.0313 30.6063 54.3358 33.5406 55.7773L41.8671 59.8625C42.3673 60.1082 42.5734 60.7125 42.3283 61.2121C42.153 61.5684 41.7955 61.7762 41.4224 61.7762L41.4223 61.7762Z" fill="#262B2C"/>
<path d="M15.954 66.55C15.5051 66.55 15.0953 66.2479 14.9783 65.7926C14.8397 65.2535 15.1646 64.7033 15.7031 64.5647L24.2073 62.3728C26.8179 61.7009 29.5285 61.8453 32.0524 62.7908L34.5232 63.7177C35.0443 63.9139 35.308 64.4943 35.113 65.016C34.9168 65.5376 34.3363 65.7978 33.8141 65.6063L31.3433 64.6794C29.2107 63.8789 26.9163 63.7567 24.7115 64.3255L16.2073 66.5174C16.1229 66.5395 16.0379 66.55 15.9541 66.55L15.954 66.55Z" fill="#262B2C"/>
</svg>
