<svg width="30" height="24" viewBox="0 0 30 24" fill="none" xmlns="http://www.w3.org/2000/svg">
<path d="M13.7042 17.3599C13.8458 17.4549 14.0074 17.4998 14.1658 17.4998C14.4357 17.4998 14.699 17.3698 14.8606 17.1283L21.5274 7.12859C21.7824 6.74685 21.6792 6.22854 21.2958 5.97346C20.9107 5.71842 20.394 5.82168 20.1407 6.20507L13.4739 16.2048C13.2175 16.5865 13.3208 17.1052 13.7042 17.3599H13.7042Z" fill="#C7C7C7"/>
<path d="M13.3334 10.8334C15.1718 10.8334 16.6667 9.33845 16.6667 7.5C16.6667 5.66156 15.1718 4.16663 13.3334 4.16663C11.4949 4.16663 10 5.66156 10 7.5C10 9.33811 11.4949 10.8334 13.3334 10.8334ZM13.3334 5.83319C14.2516 5.83319 15.0002 6.57983 15.0002 7.5C15.0002 8.4199 14.2519 9.16682 13.3334 9.16682C12.4152 9.16682 11.6666 8.42017 11.6666 7.5C11.6666 6.57983 12.4149 5.83319 13.3334 5.83319Z" fill="#C7C7C7"/>
<path d="M18.332 15.8328C18.332 17.6712 19.827 19.1662 21.6654 19.1662C23.5039 19.1662 24.9988 17.6712 24.9988 15.8328C24.9988 13.9943 23.5039 12.4994 21.6654 12.4994C19.8273 12.4994 18.332 13.9943 18.332 15.8328ZM21.6654 14.1663C22.5836 14.1663 23.3322 14.913 23.3322 15.8331C23.3322 16.753 22.5839 17.4999 21.6654 17.4999C20.7472 17.4999 19.9986 16.7533 19.9986 15.8331C19.9989 14.9129 20.7472 14.1663 21.6654 14.1663Z" fill="#C7C7C7"/>
<path d="M5.83245 9.16605C5.37251 9.16605 4.99902 9.53955 4.99902 9.99948V13.3329C4.99902 13.7928 5.37251 14.1663 5.83245 14.1663C6.29238 14.1663 6.66587 13.7928 6.66587 13.3329V9.99948C6.66587 9.53955 6.29238 9.16605 5.83245 9.16605Z" fill="#C7C7C7"/>
<path d="M29.1666 0H0.833103C0.373171 0 9.02174e-06 0.373162 9.02174e-06 0.833094V8.33325C9.02174e-06 8.62987 0.158379 8.90503 0.415073 9.05317C1.09309 9.44844 1.66649 10.6468 1.66649 11.6666C1.66649 12.6867 1.09306 13.8851 0.414736 14.28C0.158041 14.4285 0 14.7033 0 14.9999V22.5001C0 22.9603 0.373163 23.3335 0.833096 23.3335H29.1666C29.6265 23.3335 30 22.96 30 22.5001V0.83333C30 0.373398 29.6268 0.000235854 29.1666 0.000235854L29.1666 0ZM28.3335 21.6667H6.66676V18.3334C6.66676 17.8734 6.29327 17.4999 5.83333 17.4999C5.3734 17.4999 4.99991 17.8731 4.99991 18.333V21.6664L1.66654 21.6667V15.4299C2.75173 14.5331 3.33335 12.8946 3.33335 11.6663C3.33335 10.4379 2.75167 8.79947 1.66654 7.90297V1.66614H4.99991V4.99951C4.99991 5.45945 5.3734 5.83294 5.83333 5.83294C6.29327 5.83294 6.66676 5.45945 6.66676 4.99951V1.66614H28.3335V21.6667Z" fill="#C7C7C7"/>
</svg>
