<svg width="36" height="35" viewBox="0 0 36 35" fill="none" xmlns="http://www.w3.org/2000/svg">
<path d="M26.7286 30.2527H9.27497C8.57664 30.2527 8.11133 29.7874 8.11133 29.0891V19.3148C8.11133 18.6164 8.57663 18.1511 9.27497 18.1511H26.7286C27.4269 18.1511 27.8922 18.6164 27.8922 19.3148V29.0894C27.8922 29.7874 27.4265 30.2527 26.7286 30.2527ZM10.4386 27.9258H25.565V20.4788H10.4386V27.9258Z" fill="#C7C7C7"/>
<path d="M35.4564 11.9852L31.9655 0.814656C31.8492 0.349357 31.3839 0 30.8019 0H5.20275C4.73745 0 4.27176 0.348974 4.0391 0.814656L0.548183 11.9852C0.431859 12.3342 0.548183 12.6835 0.664508 13.0325C0.897157 13.3815 1.24613 13.4978 1.59549 13.4978C2.06079 13.4978 2.29382 13.7304 2.75913 14.1961C2.87545 14.4288 3.1081 14.6614 3.34075 14.7777V33.7439C3.34075 34.4422 3.92238 34.9075 4.50439 34.9075H31.2671C31.8488 34.9075 32.4308 34.4422 32.4308 33.7439V14.7777C32.6634 14.5451 32.7798 14.3124 33.0124 14.1961C33.4777 13.6145 33.7107 13.4978 34.176 13.4978C34.525 13.4978 34.8744 13.2651 35.107 13.0325C35.4564 12.6835 35.5727 12.3342 35.4564 11.9852H35.4564ZM30.2203 32.5809H5.78486V15.825C7.29749 15.825 8.11214 14.894 8.69376 14.1961C9.15906 13.6145 9.3921 13.4978 9.8574 13.4978C10.3227 13.4978 10.5557 13.7304 11.021 14.1961C11.6027 14.7778 12.4173 15.825 13.9299 15.825C15.4426 15.825 16.2572 14.894 16.8389 14.1961C17.3042 13.6145 17.5372 13.4978 18.0025 13.4978C18.4678 13.4978 18.7008 13.7304 19.1661 14.1961C19.7478 14.7778 20.5624 15.825 22.075 15.825C23.5877 15.825 24.4023 14.894 24.9839 14.1961C25.4492 13.6145 25.6823 13.4978 26.1476 13.4978C26.6129 13.4978 26.8459 13.7304 27.3112 14.1961C27.8928 14.8945 28.7075 15.825 30.2201 15.825L30.2203 32.5809ZM31.3836 12.684C30.9183 13.2656 30.6852 13.4986 30.2199 13.4986C29.7546 13.4986 29.5216 13.266 29.0563 12.684C28.4747 11.9857 27.66 11.1714 26.1474 11.1714C24.6348 11.1714 23.8201 12.1023 23.2385 12.684C22.7732 13.2656 22.5402 13.4986 22.0748 13.4986C21.6095 13.4986 21.3765 13.266 20.9112 12.684C20.3296 12.1024 19.5149 11.1714 18.0023 11.1714C16.4897 11.1714 15.675 12.1023 15.0934 12.684C14.6281 13.2656 14.3951 13.4986 13.9298 13.4986C13.4644 13.4986 13.2314 13.266 12.7661 12.684C12.1845 12.1024 11.3698 11.1714 9.85721 11.1714C8.34458 11.1714 7.52993 12.1023 6.9483 12.684C6.483 13.2656 6.24997 13.4986 5.78466 13.4986C5.31935 13.4986 5.08633 13.266 4.62102 12.684C4.27205 12.335 3.80637 11.753 3.22475 11.4041L6.0169 2.32768H29.8705L32.7795 11.4037C32.1978 11.753 31.7326 12.2183 31.3832 12.684H31.3836Z" fill="#C7C7C7"/>
</svg>
