<svg width="38" height="34" viewBox="0 0 38 34" fill="none" xmlns="http://www.w3.org/2000/svg">
<path d="M37.2998 10.5482C37.1294 10.3346 36.8727 10.2106 36.6018 10.2106H29.4238L22.0953 1.28219C21.7781 0.896048 21.212 0.843458 20.8308 1.16477C20.4496 1.48571 20.3977 2.05916 20.7145 2.44533L27.0883 10.2107H12.157L17.5258 2.38336V2.383C17.8089 1.97056 17.7082 1.40361 17.3008 1.11655C16.8933 0.82982 16.3336 0.931761 16.0506 1.34456L9.96946 10.2107H1.39827C1.12021 10.2107 0.85744 10.3414 0.687118 10.5644C0.51715 10.7877 0.458838 11.0781 0.529238 11.3511L6.20392 33.2748C6.30774 33.6746 6.66475 33.9538 7.07295 33.9538H31.9855C32.409 33.9538 32.7752 33.6537 32.8634 33.2337L37.4802 11.31C37.5368 11.0417 37.4706 10.7618 37.3003 10.5482L37.2998 10.5482ZM31.2578 32.1343H7.76622L2.5627 12.03H35.493L31.2578 32.1343Z" fill="#DADADA"/>
</svg>
