<svg width="278" height="248" viewBox="0 0 278 248" fill="none" xmlns="http://www.w3.org/2000/svg">
<g clip-path="url(#clip0_388_314)">
<path d="M32.4274 177.45C35.639 186.929 40.2326 195.879 46.0587 204.009C52.5057 212.782 60.3815 220.401 69.3542 226.546C96.8826 245.957 129.164 247.18 140.732 247.474C156.387 247.882 190.764 248.769 223.344 226.546C226.566 224.349 276.332 189.439 277.883 129.956C278.235 116.416 279.107 82.8161 257.829 65.5623C238.2 49.651 220.609 64.5871 176.826 46.2443C160.666 39.4777 155.481 34.2674 140.732 32.564C118.96 30.039 101.462 38.0549 92.6097 42.2231C86.0074 45.3224 45.5129 65.2617 31.6154 112.248C29.8117 118.387 22.0243 146.709 32.4274 177.45Z" fill="#F7C8B9"/>
<path d="M122.714 125.3H51.3301V132.547H122.714V125.3Z" fill="#383838"/>
<path d="M87.0186 79.4164C86.5339 79.4189 86.0579 79.5468 85.6373 79.7885C85.216 80.0301 84.8643 80.3767 84.6156 80.7948C84.3677 81.2121 84.2307 81.6874 84.2196 82.1739C84.2077 82.6603 84.321 83.142 84.5491 83.5713C86.1917 83.402 87.8463 83.402 89.4881 83.5713C89.7131 83.1619 89.8295 82.7025 89.8279 82.2351C89.8279 81.4879 89.5317 80.7709 89.005 80.2423C88.4783 79.7129 87.7639 79.4164 87.0186 79.4164Z" stroke="#262B2C" stroke-miterlimit="10"/>
<path d="M122.714 55.2688H51.3301V62.5164H122.714V55.2688Z" fill="#383838"/>
<path d="M120.305 190.495C120.303 193.979 118.976 197.331 116.595 199.866C114.214 202.401 110.959 203.929 107.494 204.137C104.029 204.345 100.615 203.218 97.9503 200.986C95.2851 198.754 93.5696 195.585 93.1538 192.126C92.738 188.667 93.6536 185.18 95.7128 182.375C97.7729 179.57 100.821 177.661 104.236 177.036C107.651 176.411 111.175 177.118 114.089 179.012C117.002 180.906 119.085 183.845 119.912 187.229C120.175 188.297 120.307 189.394 120.305 190.495Z" fill="#F7C8B9"/>
<path d="M235.798 190.495C235.798 194.127 234.36 197.61 231.801 200.178C229.242 202.746 225.772 204.188 222.153 204.188C218.534 204.188 215.064 202.746 212.505 200.178C209.946 197.61 208.509 194.127 208.509 190.495C208.506 189.586 208.595 188.68 208.775 187.79C209.447 184.466 211.325 181.511 214.045 179.499C216.765 177.486 220.132 176.558 223.495 176.895C226.857 177.232 229.975 178.81 232.245 181.322C234.514 183.835 235.773 187.103 235.778 190.495H235.798Z" fill="#F7C8B9"/>
<path d="M53.7393 62.5164V125.307H120.298V62.5164H53.7393ZM113.889 110.812H60.9542V105.982H65.194C65.0446 105.049 64.969 104.108 64.9677 103.163C64.9677 93.0231 73.5272 84.6666 84.5489 83.5712C84.3454 83.1937 84.2298 82.774 84.2123 82.3448C84.1941 81.9163 84.2749 81.4887 84.4468 81.0952C84.6186 80.7018 84.8776 80.3528 85.2047 80.0754C85.5311 79.798 85.9168 79.5993 86.3318 79.4943C86.7468 79.3895 87.18 79.381 87.599 79.4697C88.0172 79.5587 88.4108 79.7423 88.7475 80.0062C89.0849 80.2709 89.3573 80.6088 89.545 80.9951C89.7319 81.3814 89.8286 81.8058 89.827 82.2351C89.8294 82.7024 89.7129 83.1619 89.488 83.5712C100.51 84.6666 109.076 93.0231 109.076 103.163C109.076 104.108 108.998 105.05 108.843 105.982H113.889V110.812Z" fill="#656464"/>
<path d="M113.888 105.982H60.9541V110.811H113.888V105.982Z" fill="#EB6F53" stroke="white" stroke-miterlimit="10"/>
<path d="M109.076 103.163C109.076 104.107 108.998 105.05 108.843 105.982H65.1941C65.0447 105.049 64.969 104.107 64.9678 103.163C64.9678 93.023 73.5272 84.6665 84.549 83.5712C86.1916 83.4019 87.8461 83.4019 89.488 83.5712C100.51 84.6665 109.076 93.023 109.076 103.163Z" fill="#EB6F53" stroke="white" stroke-miterlimit="10"/>
<path d="M89.8279 82.235C89.8295 82.7024 89.7131 83.1619 89.4881 83.5712C87.8463 83.4019 86.191 83.4019 84.5491 83.5712C84.3455 83.1937 84.2299 82.774 84.2125 82.3447C84.1943 81.9163 84.2751 81.4887 84.4469 81.0952C84.6188 80.7017 84.8778 80.3528 85.2049 80.0762C85.5312 79.7988 85.9169 79.5992 86.3319 79.4943C86.747 79.3895 87.1802 79.3811 87.5992 79.4698C88.0174 79.5587 88.411 79.7423 88.7476 80.0062C89.085 80.2709 89.3575 80.6087 89.5452 80.995C89.7321 81.3814 89.8287 81.8058 89.8279 82.235Z" fill="white" stroke="white" stroke-miterlimit="10"/>
<path d="M188.601 43.4522C188.598 47.8669 189.842 52.1919 192.19 55.9253C194.538 59.6587 197.893 62.6472 201.865 64.5439C205.837 66.4407 210.264 67.1679 214.632 66.6411C218.999 66.1143 223.128 64.3551 226.539 61.5678L211.896 46.271V20.1128C208.839 20.1076 205.811 20.7074 202.985 21.8779C200.159 23.0484 197.59 24.7668 195.426 26.9346C193.262 29.1024 191.546 31.677 190.375 34.5113C189.204 37.3456 188.601 40.3838 188.601 43.4522Z" fill="#EB6F53"/>
<path d="M255.047 188.083L245.249 188.017C244.547 182.29 241.791 177.016 237.495 173.18C233.201 169.344 227.662 167.208 221.912 167.173C216.164 167.137 210.598 169.203 206.256 172.985C201.914 176.767 199.093 182.006 198.319 187.723L129.657 187.269C128.805 181.686 125.998 176.591 121.74 172.898C117.483 169.205 112.053 167.157 106.426 167.121C100.799 167.084 95.3424 169.063 91.0377 172.7C86.7331 176.338 83.862 181.397 82.9393 186.968L64.5622 186.855C63.8428 182.602 63.5751 178.285 63.7635 173.976C63.8193 170.166 64.3583 166.379 65.3675 162.707C66.8687 157.727 69.3166 153.086 72.5759 149.04C73.0684 148.372 73.5543 147.771 74.0601 147.176C78.3693 142.062 83.5761 137.783 89.422 134.551C90.7534 133.803 92.0713 133.136 93.3758 132.547H122.708V131.746H147.967V160.323C147.887 162.144 148.303 163.952 149.171 165.553C150.037 167.082 151.122 167.957 153.166 169.561C154.689 170.75 156.297 171.826 157.977 172.78C161.738 174.784 174.617 176.18 191.663 173.588C195.917 171.337 199.511 168.007 202.086 163.93C203.111 162.273 205.148 158.586 206.079 151.05C206.479 147.892 207.178 140.142 203.67 125.293C201.717 117.021 199.033 108.94 195.65 101.146H171.636V91.4938H195.696V94.713C198.263 93.7862 201.017 93.508 203.716 93.9046C205.986 94.3036 208.163 95.1232 210.133 96.3226C212.828 97.7955 215.266 99.6968 217.354 101.954C217.88 100.221 218.693 98.588 219.757 97.1246C221.238 95.1049 223.159 93.4531 225.375 92.295H242.214V121.272H224.57C225.137 123.347 225.672 125.494 226.173 127.711C227.198 132.207 227.99 136.509 228.583 140.59C230.52 141.23 232.397 142.04 234.193 143.008C243.073 147.771 247.539 155.105 249.436 158.298C252.225 163.008 254.128 168.194 255.047 173.595C255.844 178.392 255.844 183.287 255.047 188.083Z" fill="#EB6F53"/>
<path d="M74.0664 147.19C73.5606 147.784 73.0747 148.406 72.5821 149.054C69.3229 153.099 66.875 157.741 65.3738 162.721L54.5381 163.135V140.59C55.8692 140.075 61.0342 138.299 66.5719 140.59C69.6887 141.961 72.3065 144.267 74.0664 147.19Z" fill="#D31400" stroke="#F36161" stroke-miterlimit="10"/>
<path d="M72.5821 149.046L72.662 148.953C71.0131 146.743 68.811 145.01 66.279 143.93C62.5051 142.472 58.3314 142.444 54.5381 143.85V163.155L65.3738 162.741C66.8719 157.751 69.3198 153.1 72.5821 149.046Z" fill="#F36161"/>
<path d="M47.3233 146.749H0V152.667H47.3233V146.749Z" fill="#F36161"/>
<path d="M52.9339 175.205H6.41602V180.034H52.9339V175.205Z" fill="#F36161"/>
<path d="M47.3237 159.908H12.833V165.546H47.3237V159.908Z" fill="#F36161"/>
<path d="M213.46 7.23425V10.8814C213.061 10.8814 212.662 10.8814 212.256 10.8814C210.782 10.8824 209.309 10.9851 207.85 11.1887V7.26095L213.46 7.23425Z" fill="#262B2C" stroke="#262B2C" stroke-miterlimit="10"/>
<path d="M221.481 0.794922H200.628V7.23427H221.481V0.794922Z" fill="#262B2C" stroke="#262B2C" stroke-miterlimit="10"/>
<path d="M238.42 23.2591C235.507 19.5514 231.825 16.5239 227.63 14.3866C223.436 12.2492 218.828 11.0532 214.125 10.8813C213.726 10.8813 213.327 10.8813 212.921 10.8813C204.387 11.004 196.242 14.4926 190.25 20.5932C184.258 26.6937 180.898 34.9159 180.898 43.4822C180.898 52.0485 184.258 60.2707 190.25 66.3713C196.242 72.4717 204.387 75.9604 212.921 76.083C219.018 76.0801 224.99 74.3555 230.156 71.1062C235.321 67.857 239.472 63.2142 242.131 57.7091C244.792 52.2039 245.854 46.0586 245.198 39.9758C244.541 33.893 242.192 28.1185 238.42 23.3125V23.2591ZM212.921 70.4186C207.607 70.4186 202.411 68.837 197.993 65.8739C193.574 62.9108 190.13 58.6992 188.096 53.7718C186.063 48.8443 185.531 43.4222 186.568 38.1912C187.604 32.9603 190.164 28.1553 193.921 24.384C197.679 20.6127 202.467 18.0444 207.679 17.0038C212.891 15.9634 218.294 16.4974 223.204 18.5384C228.113 20.5794 232.31 24.0358 235.262 28.4704C238.215 32.905 239.791 38.1187 239.791 43.4522C239.792 46.9936 239.097 50.5007 237.747 53.7728C236.397 57.0449 234.418 60.018 231.923 62.5223C229.427 65.0265 226.465 67.0127 223.204 68.3677C219.944 69.7225 216.45 70.4195 212.921 70.4186Z" fill="#262B2C" stroke="#262B2C" stroke-miterlimit="10"/>
<path d="M240.816 20.4469C240.575 21.1314 240.169 21.7458 239.635 22.2361C239.101 22.7265 238.455 23.0777 237.754 23.2591C236.197 21.2607 234.41 19.4536 232.43 17.8752C232.457 17.7433 232.495 17.6137 232.543 17.4877C232.737 16.9404 233.036 16.4366 233.424 16.0053C233.811 15.5739 234.28 15.2234 234.802 14.9737C235.325 14.724 235.891 14.5802 236.469 14.5502C237.047 14.5202 237.625 14.6048 238.171 14.7991C238.716 14.9934 239.218 15.2936 239.648 15.6826C240.077 16.0716 240.427 16.5418 240.675 17.0661C240.924 17.5906 241.068 18.1591 241.098 18.7392C241.128 19.3193 241.043 19.8995 240.85 20.4469H240.816Z" fill="#262B2C" stroke="#262B2C" stroke-miterlimit="10"/>
<path d="M191.908 18.0421C189.995 19.5838 188.263 21.3384 186.744 23.2724C185.961 23.1183 185.236 22.754 184.643 22.2185C184.051 21.683 183.614 20.9963 183.381 20.2315C183.146 19.4668 183.124 18.6527 183.314 17.8758C183.505 17.0991 183.902 16.3887 184.463 15.8205C185.024 15.2523 185.728 14.8475 186.5 14.6492C187.273 14.4509 188.085 14.4666 188.848 14.6946C189.612 14.9226 190.301 15.3543 190.839 15.9438C191.379 16.5334 191.748 17.2585 191.908 18.0421Z" fill="#262B2C" stroke="#262B2C" stroke-miterlimit="10"/>
<path d="M129.656 187.269C128.805 181.686 125.998 176.591 121.74 172.898C117.483 169.205 112.053 167.157 106.425 167.121C100.798 167.084 95.3418 169.063 91.0371 172.7C86.7325 176.338 83.8614 181.397 82.9387 186.968C82.7177 188.261 82.6092 189.571 82.6124 190.882C82.6084 194.155 83.2793 197.394 84.5829 200.395C85.8858 203.396 87.793 206.094 90.1841 208.32C92.576 210.546 95.4004 212.251 98.4798 213.329C101.559 214.408 104.828 214.836 108.08 214.585C111.332 214.336 114.498 213.414 117.377 211.878C120.258 210.341 122.79 208.225 124.816 205.66C126.843 203.095 128.318 200.136 129.151 196.972C129.984 193.806 130.156 190.503 129.656 187.269ZM106.673 204.162C104.116 204.163 101.609 203.442 99.4397 202.082C97.2711 200.721 95.5271 198.776 94.4072 196.468C93.2873 194.16 92.8366 191.583 93.1059 189.03C93.376 186.478 94.3557 184.053 95.9334 182.032C97.5111 180.012 99.6234 178.477 102.029 177.605C104.434 176.731 107.035 176.555 109.536 177.094C112.036 177.634 114.335 178.868 116.17 180.657C118.005 182.445 119.301 184.715 119.912 187.208C120.175 188.277 120.306 189.374 120.305 190.475C120.308 192.274 119.958 194.055 119.274 195.718C118.591 197.381 117.587 198.893 116.322 200.165C115.055 201.439 113.551 202.449 111.896 203.138C110.241 203.827 108.466 204.182 106.673 204.182V204.162Z" fill="#262B2C"/>
<path d="M245.269 188.017C244.526 181.886 241.434 176.286 236.647 172.404C231.86 168.522 225.755 166.663 219.626 167.222C213.497 167.78 207.826 170.712 203.813 175.396C199.802 180.079 197.765 186.146 198.135 192.312C198.504 198.477 201.252 204.256 205.794 208.422C210.337 212.589 216.318 214.817 222.47 214.634C228.621 214.451 234.46 211.871 238.748 207.441C243.036 203.01 245.437 197.079 245.442 190.903C245.445 189.938 245.388 188.974 245.269 188.017ZM222.186 204.182C218.57 204.182 215.101 202.74 212.543 200.173C209.985 197.606 208.548 194.125 208.548 190.495C208.546 189.586 208.635 188.68 208.814 187.79C209.325 185.25 210.543 182.907 212.328 181.034C214.112 179.162 216.389 177.837 218.895 177.212C221.4 176.587 224.031 176.689 226.482 177.505C228.932 178.322 231.101 179.82 232.736 181.824C234.371 183.83 235.406 186.259 235.72 188.831C236.034 191.403 235.614 194.011 234.509 196.353C233.404 198.695 231.659 200.673 229.478 202.06C227.297 203.445 224.768 204.181 222.186 204.182Z" fill="#262B2C"/>
<path d="M217.354 102.763C219.489 108.663 221.627 114.566 223.771 120.471H242.215V92.2949H226.979C224.571 92.9833 222.399 94.3242 220.701 96.1707C219.003 98.0172 217.845 100.298 217.354 102.763Z" fill="#D31400" stroke="#F36161" stroke-miterlimit="10"/>
<path d="M226.372 120.471H242.214V94.2988H230.306C227.898 94.9872 225.726 96.3281 224.028 98.1746C222.33 100.021 221.172 102.302 220.682 104.766L226.372 120.471Z" fill="#F36161" stroke="#F36161" stroke-miterlimit="10"/>
<path d="M160.513 113.223H129.031C125.542 113.223 122.715 116.061 122.715 119.562V125.401C122.715 128.901 125.542 131.74 129.031 131.74H160.513C164.002 131.74 166.83 128.901 166.83 125.401V119.562C166.83 116.061 164.002 113.223 160.513 113.223Z" fill="#D31400" stroke="#F36161" stroke-miterlimit="10"/>
<path d="M160.513 113.223H129.031C125.542 113.223 122.715 116.061 122.715 119.562V120.724C122.715 124.225 125.542 127.063 129.031 127.063H160.513C164.002 127.063 166.83 124.225 166.83 120.724V119.562C166.83 116.061 164.002 113.223 160.513 113.223Z" fill="#F36161"/>
</g>
<defs>
<clipPath id="clip0_388_314">
<rect width="278" height="248" fill="white"/>
</clipPath>
</defs>
</svg>
