<svg width="20" height="17" viewBox="0 0 20 17" fill="none" xmlns="http://www.w3.org/2000/svg">
<path d="M13.2727 1.13636H1V11.7727H13.2727V1.13636Z" stroke="#383838" stroke-width="2" stroke-linecap="round" stroke-linejoin="round"/>
<path d="M13.2729 5.22727H16.5457L19.0002 7.68182V11.7727H13.2729V5.22727Z" stroke="#383838" stroke-width="2" stroke-linecap="round" stroke-linejoin="round"/>
<path d="M4.68168 15.8636C5.81136 15.8636 6.72714 14.9479 6.72714 13.8182C6.72714 12.6885 5.81136 11.7727 4.68168 11.7727C3.55201 11.7727 2.63623 12.6885 2.63623 13.8182C2.63623 14.9479 3.55201 15.8636 4.68168 15.8636Z" stroke="#383838" stroke-width="2" stroke-linecap="round" stroke-linejoin="round"/>
<path d="M15.3184 15.8636C16.4481 15.8636 17.3639 14.9479 17.3639 13.8182C17.3639 12.6885 16.4481 11.7727 15.3184 11.7727C14.1887 11.7727 13.2729 12.6885 13.2729 13.8182C13.2729 14.9479 14.1887 15.8636 15.3184 15.8636Z" stroke="#383838" stroke-width="2" stroke-linecap="round" stroke-linejoin="round"/>
</svg>
